<?xml version="1.0" encoding="UTF-8" standalone="no"?>
<!-- Created with Inkscape (http://www.inkscape.org/) -->

<svg
   xmlns:dc="http://purl.org/dc/elements/1.1/"
   xmlns:cc="http://creativecommons.org/ns#"
   xmlns:rdf="http://www.w3.org/1999/02/22-rdf-syntax-ns#"
   xmlns:svg="http://www.w3.org/2000/svg"
   xmlns="http://www.w3.org/2000/svg"
   xmlns:sodipodi="http://sodipodi.sourceforge.net/DTD/sodipodi-0.dtd"
   xmlns:inkscape="http://www.inkscape.org/namespaces/inkscape"
   width="210mm"
   height="297mm"
   viewBox="0 0 210 297"
   version="1.1"
   id="svg8"
   sodipodi:docname="middle-motor-mount.svg"
   inkscape:version="0.92.3 (2405546, 2018-03-11)">
  <defs
     id="defs2" />
  <sodipodi:namedview
     id="base"
     pagecolor="#ffffff"
     bordercolor="#666666"
     borderopacity="1.0"
     inkscape:pageopacity="0.0"
     inkscape:pageshadow="2"
     inkscape:zoom="2.8"
     inkscape:cx="92.984"
     inkscape:cy="93.442356"
     inkscape:document-units="mm"
     inkscape:current-layer="layer1"
     showgrid="true"
     inkscape:measure-start="385.512,264.567"
     inkscape:measure-end="374.173,211.654"
     inkscape:window-width="1920"
     inkscape:window-height="1200"
     inkscape:window-x="0"
     inkscape:window-y="0"
     inkscape:window-maximized="0">
    <inkscape:grid
       type="xygrid"
       id="grid10"
       units="mm"
       spacingx="1"
       spacingy="1"
       empspacing="0" />
  </sodipodi:namedview>
  <metadata
     id="metadata5">
    <rdf:RDF>
      <cc:Work
         rdf:about="">
        <dc:format>image/svg+xml</dc:format>
        <dc:type
           rdf:resource="http://purl.org/dc/dcmitype/StillImage" />
        <dc:title />
      </cc:Work>
    </rdf:RDF>
  </metadata>
  <g
     inkscape:label="Layer 1"
     inkscape:groupmode="layer"
     id="layer1">
    <g
       id="g2293"
       inkscape:label="motor mount">
      <g
         transform="translate(73.499924,-2.3000792)"
         id="g1125">
        <circle
           style="fill:none;stroke:#000000;stroke-width:0.2;stroke-miterlimit:4;stroke-dasharray:none"
           id="path1064"
           cx="10"
           cy="277"
           r="1.6" />
        <circle
           style="fill:none;stroke:#000000;stroke-width:0.2;stroke-miterlimit:4;stroke-dasharray:none"
           id="path1064-2"
           cx="60"
           cy="277"
           r="1.6" />
        <circle
           style="fill:none;stroke:#000000;stroke-width:0.2;stroke-miterlimit:4;stroke-dasharray:none"
           id="path1081"
           cx="21"
           cy="264"
           r="2.2" />
        <circle
           style="fill:none;stroke:#000000;stroke-width:0.2;stroke-miterlimit:4;stroke-dasharray:none"
           id="path1081-7"
           cx="49"
           cy="264"
           r="2.2" />
        <circle
           style="fill:none;stroke:#000000;stroke-width:0.2;stroke-miterlimit:4;stroke-dasharray:none"
           id="path1081-0"
           cx="21"
           cy="290"
           r="2.2" />
        <circle
           style="fill:none;stroke:#000000;stroke-width:0.2;stroke-miterlimit:4;stroke-dasharray:none"
           id="path1081-7-9"
           cx="49.000004"
           cy="290"
           r="2.2" />
        <path
           inkscape:connector-curvature="0"
           id="rect1116"
           transform="matrix(0.26458333,0,0,0.26458333,-86,2)"
           d="m 343.9375,963.7793 v 151.1816 h 253.22852 15.11718 l 26.45703,-18.8984 v -7.5586 -11.3379 H 612.2832 v 11.3379 h -15.11718 v -41.5742 h 11.33789 v -37.7949 h -11.33789 v -45.3555 z"
           style="fill:none;stroke:#000000;stroke-width:0.79878384;stroke-miterlimit:4;stroke-dasharray:none" />
      </g>
      <g
         id="g934"
         transform="translate(1.4998099,2.7000684)">
        <path
           transform="scale(0.26458333)"
           inkscape:label="nema"
           inkscape:connector-curvature="0"
           id="path3719"
           d="m 41.574219,957.73242 a 6.0472442,6.0472442 0 0 0 -6.046875,6.04688 6.0472442,6.0472442 0 0 0 6.046875,6.04687 6.0472442,6.0472442 0 0 0 6.046875,-6.04687 6.0472442,6.0472442 0 0 0 -6.046875,-6.04688 z m 117.166011,0 a 6.0472442,6.0472442 0 0 0 -6.04687,6.04688 6.0472442,6.0472442 0 0 0 6.04687,6.04687 6.0472442,6.0472442 0 0 0 6.04688,-6.04687 6.0472442,6.0472442 0 0 0 -6.04688,-6.04688 z m -58.58203,22.29883 a 42.330708,42.330708 0 0 0 -42.332028,42.33005 42.330708,42.330708 0 0 0 42.332028,42.3321 42.330708,42.330708 0 0 0 42.33008,-42.3321 42.330708,42.330708 0 0 0 -42.33008,-42.33005 z m -58.583981,94.86715 a 6.0472442,6.0472442 0 0 0 -6.046875,6.0469 6.0472442,6.0472442 0 0 0 6.046875,6.0469 6.0472442,6.0472442 0 0 0 6.046875,-6.0469 6.0472442,6.0472442 0 0 0 -6.046875,-6.0469 z m 117.166011,0 a 6.0472442,6.0472442 0 0 0 -6.04687,6.0469 6.0472442,6.0472442 0 0 0 6.04687,6.0469 6.0472442,6.0472442 0 0 0 6.04688,-6.0469 6.0472442,6.0472442 0 0 0 -6.04688,-6.0469 z"
           style="fill:none;stroke:#000000;stroke-width:0.49999997" />
        <path
           inkscape:connector-curvature="0"
           id="rect3760"
           transform="matrix(0.26458333,0,0,0.26458333,-13.999886,-3.0001476)"
           d="M 68.03125,952.44141 V 960 H 56.693359 v 30.23633 7.55859 H 68.03125 v 7.56058 49.1347 15.1153 H 56.693359 v 7.5605 30.2363 H 68.03125 v 7.5586 h 30.236328 3.779302 49.13281 41.57422 37.79687 V 952.44141 Z m 3.779297,83.14839 h 26.457031 v 11.3399 H 71.810547 Z"
           style="fill:none;stroke:#000000;stroke-width:1.00157475;stroke-miterlimit:4;stroke-dasharray:none" />
      </g>
      <path
         inkscape:connector-curvature="0"
         id="rect1401"
         d="m 49.499757,251.70004 v 21.99968 h 3.000333 v 3.00035 h -3.000333 v 17.99992 h 7.000089 l 21.000267,-16.99998 v -5.00023 L 56.499846,251.70004 Z m 2.000393,1.99988 h 2.999819 v 9.9999 H 51.50015 Z m 8.000029,19.9998 h 2.999816 9.999909 0.999937 v 3.00035 h -0.999937 -9.999909 -2.999816 z m -8.000029,8.99998 h 2.999819 v 10.00041 H 51.50015 Z"
         style="fill:none;stroke:#000000;stroke-width:0.2;stroke-miterlimit:4;stroke-dasharray:none" />
    </g>
  </g>
</svg>
