<?xml version="1.0" encoding="UTF-8" standalone="no"?>
<!-- Created with Inkscape (http://www.inkscape.org/) -->

<svg
   xmlns:dc="http://purl.org/dc/elements/1.1/"
   xmlns:cc="http://creativecommons.org/ns#"
   xmlns:rdf="http://www.w3.org/1999/02/22-rdf-syntax-ns#"
   xmlns:svg="http://www.w3.org/2000/svg"
   xmlns="http://www.w3.org/2000/svg"
   xmlns:sodipodi="http://sodipodi.sourceforge.net/DTD/sodipodi-0.dtd"
   xmlns:inkscape="http://www.inkscape.org/namespaces/inkscape"
   width="70.866142pc"
   height="141.73228pc"
   viewBox="0 0 300 600"
   version="1.1"
   id="svg8"
   inkscape:version="0.92.3 (2405546, 2018-03-11)"
   sodipodi:docname="reed-matrix.svg">
  <defs
     id="defs2" />
  <sodipodi:namedview
     id="base"
     pagecolor="#ffffff"
     bordercolor="#666666"
     borderopacity="1.0"
     inkscape:pageopacity="0.0"
     inkscape:pageshadow="2"
     inkscape:zoom="0.7"
     inkscape:cx="639.11989"
     inkscape:cy="1847.817"
     inkscape:document-units="mm"
     inkscape:current-layer="layer1"
     showgrid="false"
     units="pc"
     inkscape:measure-start="1276.83,1608.16"
     inkscape:measure-end="1367.75,1769.79"
     inkscape:window-width="1920"
     inkscape:window-height="1200"
     inkscape:window-x="0"
     inkscape:window-y="0"
     inkscape:window-maximized="0" />
  <metadata
     id="metadata5">
    <rdf:RDF>
      <cc:Work
         rdf:about="">
        <dc:format>image/svg+xml</dc:format>
        <dc:type
           rdf:resource="http://purl.org/dc/dcmitype/StillImage" />
        <dc:title />
      </cc:Work>
    </rdf:RDF>
  </metadata>
  <g
     inkscape:label="Layer 1"
     inkscape:groupmode="layer"
     id="layer1"
     transform="translate(0,303)">
    <g
       id="g1647"
       inkscape:label="chessboard">
      <rect
         y="147"
         x="100"
         height="50"
         width="50"
         id="rect1536"
         style="fill:none;stroke:#000000;stroke-width:0.2;stroke-miterlimit:4;stroke-dasharray:none" />
      <rect
         y="147"
         x="150"
         height="50"
         width="50"
         id="rect1536-7"
         style="fill:none;stroke:#000000;stroke-width:0.2;stroke-miterlimit:4;stroke-dasharray:none" />
      <rect
         y="147"
         x="200"
         height="50"
         width="50"
         id="rect1536-5"
         style="fill:none;stroke:#000000;stroke-width:0.2;stroke-miterlimit:4;stroke-dasharray:none" />
      <rect
         y="147"
         x="250"
         height="50"
         width="50"
         id="rect1536-7-3"
         style="fill:none;stroke:#000000;stroke-width:0.2;stroke-miterlimit:4;stroke-dasharray:none" />
      <rect
         y="97.000008"
         x="100"
         height="50"
         width="50"
         id="rect1536-56"
         style="fill:none;stroke:#000000;stroke-width:0.2;stroke-miterlimit:4;stroke-dasharray:none" />
      <rect
         y="97.000008"
         x="150"
         height="50"
         width="50"
         id="rect1536-7-2"
         style="fill:none;stroke:#000000;stroke-width:0.2;stroke-miterlimit:4;stroke-dasharray:none" />
      <rect
         y="97.000008"
         x="200.00002"
         height="50"
         width="50"
         id="rect1536-5-9"
         style="fill:none;stroke:#000000;stroke-width:0.2;stroke-miterlimit:4;stroke-dasharray:none" />
      <rect
         y="97.000008"
         x="249.99998"
         height="50"
         width="50"
         id="rect1536-7-3-1"
         style="fill:none;stroke:#000000;stroke-width:0.2;stroke-miterlimit:4;stroke-dasharray:none" />
      <rect
         y="47.000004"
         x="100"
         height="50"
         width="50"
         id="rect1536-2"
         style="fill:none;stroke:#000000;stroke-width:0.2;stroke-miterlimit:4;stroke-dasharray:none" />
      <rect
         y="47.000004"
         x="150"
         height="50"
         width="50"
         id="rect1536-7-7"
         style="fill:none;stroke:#000000;stroke-width:0.2;stroke-miterlimit:4;stroke-dasharray:none" />
      <rect
         y="47.000004"
         x="200.00002"
         height="50"
         width="50"
         id="rect1536-5-0"
         style="fill:none;stroke:#000000;stroke-width:0.2;stroke-miterlimit:4;stroke-dasharray:none" />
      <rect
         y="47.000004"
         x="249.99998"
         height="50"
         width="50"
         id="rect1536-7-3-9"
         style="fill:none;stroke:#000000;stroke-width:0.2;stroke-miterlimit:4;stroke-dasharray:none" />
      <rect
         y="-2.9999812"
         x="100"
         height="50"
         width="50"
         id="rect1536-56-3"
         style="fill:none;stroke:#000000;stroke-width:0.2;stroke-miterlimit:4;stroke-dasharray:none" />
      <rect
         y="-2.9999812"
         x="150"
         height="50"
         width="50"
         id="rect1536-7-2-6"
         style="fill:none;stroke:#000000;stroke-width:0.2;stroke-miterlimit:4;stroke-dasharray:none" />
      <rect
         y="-2.9999812"
         x="200.00002"
         height="50"
         width="50"
         id="rect1536-5-9-0"
         style="fill:none;stroke:#000000;stroke-width:0.2;stroke-miterlimit:4;stroke-dasharray:none" />
      <rect
         y="-2.9999812"
         x="249.99997"
         height="50"
         width="50"
         id="rect1536-7-3-1-6"
         style="fill:none;stroke:#000000;stroke-width:0.2;stroke-miterlimit:4;stroke-dasharray:none" />
      <rect
         y="-52.999996"
         x="100"
         height="50"
         width="50"
         id="rect1536-26"
         style="fill:none;stroke:#000000;stroke-width:0.2;stroke-miterlimit:4;stroke-dasharray:none" />
      <rect
         y="-52.999996"
         x="150"
         height="50"
         width="50"
         id="rect1536-7-1"
         style="fill:none;stroke:#000000;stroke-width:0.2;stroke-miterlimit:4;stroke-dasharray:none" />
      <rect
         y="-52.999996"
         x="200.00002"
         height="50"
         width="50"
         id="rect1536-5-8"
         style="fill:none;stroke:#000000;stroke-width:0.2;stroke-miterlimit:4;stroke-dasharray:none" />
      <rect
         y="-52.999996"
         x="250"
         height="50"
         width="50"
         id="rect1536-7-3-7"
         style="fill:none;stroke:#000000;stroke-width:0.2;stroke-miterlimit:4;stroke-dasharray:none" />
      <rect
         y="-102.99998"
         x="100"
         height="50"
         width="50"
         id="rect1536-56-9"
         style="fill:none;stroke:#000000;stroke-width:0.2;stroke-miterlimit:4;stroke-dasharray:none" />
      <rect
         y="-102.99998"
         x="150"
         height="50"
         width="50"
         id="rect1536-7-2-2"
         style="fill:none;stroke:#000000;stroke-width:0.2;stroke-miterlimit:4;stroke-dasharray:none" />
      <rect
         y="-102.99998"
         x="200.00003"
         height="50"
         width="50"
         id="rect1536-5-9-02"
         style="fill:none;stroke:#000000;stroke-width:0.2;stroke-miterlimit:4;stroke-dasharray:none" />
      <rect
         y="-102.99998"
         x="249.99998"
         height="50"
         width="50"
         id="rect1536-7-3-1-3"
         style="fill:none;stroke:#000000;stroke-width:0.2;stroke-miterlimit:4;stroke-dasharray:none" />
      <rect
         y="-152.99998"
         x="100"
         height="50"
         width="50"
         id="rect1536-2-7"
         style="fill:none;stroke:#000000;stroke-width:0.2;stroke-miterlimit:4;stroke-dasharray:none" />
      <rect
         y="-152.99998"
         x="150"
         height="50"
         width="50"
         id="rect1536-7-7-5"
         style="fill:none;stroke:#000000;stroke-width:0.2;stroke-miterlimit:4;stroke-dasharray:none" />
      <rect
         y="-152.99998"
         x="200.00003"
         height="50"
         width="50"
         id="rect1536-5-0-9"
         style="fill:none;stroke:#000000;stroke-width:0.2;stroke-miterlimit:4;stroke-dasharray:none" />
      <rect
         y="-152.99998"
         x="249.99998"
         height="50"
         width="50"
         id="rect1536-7-3-9-2"
         style="fill:none;stroke:#000000;stroke-width:0.2;stroke-miterlimit:4;stroke-dasharray:none" />
      <rect
         y="-202.99997"
         x="100"
         height="50"
         width="50"
         id="rect1536-56-3-2"
         style="fill:none;stroke:#000000;stroke-width:0.2;stroke-miterlimit:4;stroke-dasharray:none" />
      <rect
         y="-202.99997"
         x="150"
         height="50"
         width="50"
         id="rect1536-7-2-6-8"
         style="fill:none;stroke:#000000;stroke-width:0.2;stroke-miterlimit:4;stroke-dasharray:none" />
      <rect
         y="-202.99997"
         x="200.00003"
         height="50"
         width="50"
         id="rect1536-5-9-0-9"
         style="fill:none;stroke:#000000;stroke-width:0.2;stroke-miterlimit:4;stroke-dasharray:none" />
      <rect
         y="-202.99997"
         x="249.99998"
         height="50"
         width="50"
         id="rect1536-7-3-1-6-7"
         style="fill:none;stroke:#000000;stroke-width:0.2;stroke-miterlimit:4;stroke-dasharray:none" />
    </g>
    <g
       id="g1786"
       inkscape:label="cuts">
      <path
         inkscape:connector-curvature="0"
         id="rect1712"
         d="m 137.54622,163.21428 a 2,2 0 0 0 -1.84278,1.22317 h -4.36924 -0.007 c -0.12781,0 -0.25553,0.0488 -0.35346,0.14676 l -13.43484,13.43536 c -0.0784,0.0783 -0.12438,0.17568 -0.14004,0.27699 -0.007,0.0333 -0.0108,0.068 -0.0108,0.10335 v 4.31345 a 2,2 0 0 0 -1.28778,1.86809 2,2 0 0 0 1.28778,1.86605 v 2.95228 c 0,0.27699 0.23151,0.50022 0.51883,0.50022 h 0.4625 c 0.28732,0 0.51883,-0.22323 0.51883,-0.50022 V 186.417 a 2,2 0 0 0 1.21233,-1.83555 2,2 0 0 0 -1.21233,-1.83761 v -3.25715 c 0.0224,-0.0161 0.0444,-0.0331 0.0646,-0.0532 l 13.43536,-13.43485 c 0.0191,-0.0191 0.0347,-0.0403 0.0501,-0.0615 h 3.24373 a 2,2 0 0 0 1.86449,1.27693 2,2 0 0 0 1.86241,-1.27693 h 2.92541 c 0.277,0 0.50023,-0.23149 0.50023,-0.51882 v -0.46302 c 0,-0.28731 -0.22323,-0.51832 -0.50023,-0.51832 h -2.94712 a 2,2 0 0 0 -1.84072,-1.22267 z"
         style="fill:none;stroke:#000000;stroke-width:0.2;stroke-miterlimit:4;stroke-dasharray:none" />
      <path
         inkscape:connector-curvature="0"
         id="rect1712-1"
         d="m 187.54572,163.21428 a 1.9999799,2.0000001 0 0 0 -1.84276,1.22317 h -4.36919 -0.007 c -0.12781,0 -0.25553,0.0488 -0.35346,0.14676 l -13.4347,13.43536 c -0.0784,0.0783 -0.12438,0.17568 -0.14004,0.27699 -0.007,0.0333 -0.0108,0.068 -0.0108,0.10335 v 4.31345 a 1.9999799,2.0000001 0 0 0 -1.28777,1.86809 1.9999799,2.0000001 0 0 0 1.28777,1.86605 v 2.95228 c 0,0.27699 0.2315,0.50022 0.51882,0.50022 h 0.4625 c 0.28731,0 0.51882,-0.22323 0.51882,-0.50022 V 186.417 a 1.9999799,2.0000001 0 0 0 1.21232,-1.83555 1.9999799,2.0000001 0 0 0 -1.21232,-1.83761 v -3.25715 c 0.0224,-0.0161 0.0444,-0.0331 0.0646,-0.0532 l 13.43523,-13.43485 c 0.0191,-0.0191 0.0347,-0.0403 0.0501,-0.0615 h 3.24369 a 1.9999799,2.0000001 0 0 0 1.86447,1.27693 1.9999799,2.0000001 0 0 0 1.86239,-1.27693 h 2.92539 c 0.27699,0 0.50022,-0.23149 0.50022,-0.51882 v -0.46302 c 0,-0.28731 -0.22323,-0.51832 -0.50022,-0.51832 h -2.94709 a 1.9999799,2.0000001 0 0 0 -1.84071,-1.22267 z"
         style="fill:none;stroke:#000000;stroke-width:0.199999;stroke-miterlimit:4;stroke-dasharray:none" />
      <path
         inkscape:connector-curvature="0"
         id="rect1712-2"
         d="m 237.54594,163.21429 a 2,2 0 0 0 -1.84278,1.22317 h -4.36924 -0.007 c -0.12781,0 -0.25553,0.0488 -0.35346,0.14676 l -13.43484,13.43535 c -0.0784,0.0783 -0.12438,0.17568 -0.14004,0.27699 -0.007,0.0333 -0.0108,0.068 -0.0108,0.10335 v 4.31345 a 2,2 0 0 0 -1.28778,1.86809 2,2 0 0 0 1.28778,1.86605 v 2.95228 c 0,0.27699 0.23151,0.50022 0.51883,0.50022 h 0.4625 c 0.28732,0 0.51883,-0.22323 0.51883,-0.50022 V 186.417 a 2,2 0 0 0 1.21233,-1.83555 2,2 0 0 0 -1.21233,-1.83761 v -3.25715 c 0.0224,-0.0161 0.0444,-0.0331 0.0646,-0.0532 l 13.43536,-13.43484 c 0.0191,-0.0191 0.0347,-0.0403 0.0501,-0.0615 h 3.24373 a 2,2 0 0 0 1.86449,1.27693 2,2 0 0 0 1.86241,-1.27693 h 2.92541 c 0.277,0 0.50022,-0.23149 0.50022,-0.51882 v -0.46302 c 0,-0.28731 -0.22322,-0.51832 -0.50022,-0.51832 h -2.94712 a 2,2 0 0 0 -1.84072,-1.22267 z"
         style="fill:none;stroke:#000000;stroke-width:0.2;stroke-miterlimit:4;stroke-dasharray:none" />
      <path
         inkscape:connector-curvature="0"
         id="rect1712-1-9"
         d="m 287.54544,163.21429 a 1.9999799,2.0000001 0 0 0 -1.84276,1.22317 h -4.36919 -0.007 c -0.12781,0 -0.25553,0.0488 -0.35346,0.14676 l -13.43469,13.43535 c -0.0784,0.0783 -0.12438,0.17568 -0.14004,0.27699 -0.007,0.0333 -0.0108,0.068 -0.0108,0.10335 v 4.31345 a 1.9999799,2.0000001 0 0 0 -1.28777,1.86809 1.9999799,2.0000001 0 0 0 1.28777,1.86605 v 2.95228 c 0,0.27699 0.2315,0.50022 0.51882,0.50022 h 0.4625 c 0.28731,0 0.51882,-0.22323 0.51882,-0.50022 V 186.417 a 1.9999799,2.0000001 0 0 0 1.21232,-1.83555 1.9999799,2.0000001 0 0 0 -1.21232,-1.83761 v -3.25715 c 0.0224,-0.0161 0.0444,-0.0331 0.0646,-0.0532 l 13.43522,-13.43484 c 0.0191,-0.0191 0.0347,-0.0403 0.0501,-0.0615 h 3.2437 a 1.9999799,2.0000001 0 0 0 1.86446,1.27693 1.9999799,2.0000001 0 0 0 1.8624,-1.27693 h 2.92539 c 0.27698,0 0.50022,-0.23149 0.50022,-0.51882 v -0.46302 c 0,-0.28731 -0.22324,-0.51832 -0.50022,-0.51832 h -2.94711 a 1.9999799,2.0000001 0 0 0 -1.84071,-1.22267 z"
         style="fill:none;stroke:#000000;stroke-width:0.199999;stroke-miterlimit:4;stroke-dasharray:none" />
      <path
         inkscape:connector-curvature="0"
         id="rect1712-3"
         d="m 137.54594,113.21428 a 2,2 0 0 0 -1.84278,1.22317 h -4.36924 -0.007 c -0.12781,0 -0.25553,0.0488 -0.35346,0.14676 l -13.43484,13.43536 c -0.0784,0.0783 -0.12438,0.17568 -0.14004,0.27699 -0.007,0.0333 -0.0108,0.068 -0.0108,0.10335 v 4.31345 a 2,2 0 0 0 -1.28778,1.86809 2,2 0 0 0 1.28778,1.86605 v 2.95228 c 0,0.27699 0.23151,0.50022 0.51883,0.50022 h 0.4625 c 0.28732,0 0.51883,-0.22323 0.51883,-0.50022 V 136.417 a 2,2 0 0 0 1.21233,-1.83555 2,2 0 0 0 -1.21233,-1.83761 v -3.25715 c 0.0224,-0.0161 0.0444,-0.0331 0.0646,-0.0532 l 13.43536,-13.43485 c 0.0191,-0.0191 0.0347,-0.0403 0.0501,-0.0615 h 3.24373 a 2,2 0 0 0 1.86449,1.27693 2,2 0 0 0 1.86241,-1.27693 h 2.92541 c 0.277,0 0.50023,-0.23149 0.50023,-0.51882 v -0.46302 c 0,-0.28731 -0.22323,-0.51832 -0.50023,-0.51832 h -2.94712 a 2,2 0 0 0 -1.84072,-1.22267 z"
         style="fill:none;stroke:#000000;stroke-width:0.2;stroke-miterlimit:4;stroke-dasharray:none" />
      <path
         inkscape:connector-curvature="0"
         id="rect1712-1-1"
         d="m 187.54544,113.21428 a 1.9999799,2.0000001 0 0 0 -1.84276,1.22317 h -4.36919 -0.007 c -0.12781,0 -0.25553,0.0488 -0.35346,0.14676 l -13.43469,13.43536 c -0.0784,0.0783 -0.12438,0.17568 -0.14004,0.27699 -0.007,0.0333 -0.0108,0.068 -0.0108,0.10335 v 4.31345 a 1.9999799,2.0000001 0 0 0 -1.28777,1.86809 1.9999799,2.0000001 0 0 0 1.28777,1.86605 v 2.95228 c 0,0.27699 0.2315,0.50022 0.51882,0.50022 h 0.4625 c 0.28731,0 0.51882,-0.22323 0.51882,-0.50022 V 136.417 a 1.9999799,2.0000001 0 0 0 1.21232,-1.83555 1.9999799,2.0000001 0 0 0 -1.21232,-1.83761 v -3.25715 c 0.0224,-0.0161 0.0444,-0.0331 0.0646,-0.0532 l 13.43523,-13.43485 c 0.0191,-0.0191 0.0347,-0.0403 0.0501,-0.0615 h 3.24369 a 1.9999799,2.0000001 0 0 0 1.86447,1.27693 1.9999799,2.0000001 0 0 0 1.86239,-1.27693 h 2.92539 c 0.27699,0 0.50022,-0.23149 0.50022,-0.51882 v -0.46302 c 0,-0.28731 -0.22323,-0.51832 -0.50022,-0.51832 h -2.94711 a 1.9999799,2.0000001 0 0 0 -1.84071,-1.22267 z"
         style="fill:none;stroke:#000000;stroke-width:0.199999;stroke-miterlimit:4;stroke-dasharray:none" />
      <path
         inkscape:connector-curvature="0"
         id="rect1712-2-9"
         d="m 237.54566,113.21429 a 2,2 0 0 0 -1.84278,1.22317 h -4.36924 -0.007 c -0.12781,0 -0.25553,0.0488 -0.35346,0.14676 l -13.43483,13.43535 c -0.0784,0.0783 -0.12438,0.17568 -0.14004,0.27699 -0.007,0.0333 -0.0108,0.068 -0.0108,0.10335 v 4.31345 a 2,2 0 0 0 -1.28778,1.86809 2,2 0 0 0 1.28778,1.86605 v 2.95228 c 0,0.27699 0.23151,0.50022 0.51883,0.50022 h 0.4625 c 0.28732,0 0.51883,-0.22323 0.51883,-0.50022 V 136.417 a 2,2 0 0 0 1.21233,-1.83555 2,2 0 0 0 -1.21233,-1.83761 v -3.25715 c 0.0224,-0.0161 0.0444,-0.0331 0.0646,-0.0532 l 13.43536,-13.43484 c 0.0191,-0.0191 0.0347,-0.0403 0.0501,-0.0615 h 3.24373 a 2,2 0 0 0 1.86449,1.27693 2,2 0 0 0 1.86241,-1.27693 h 2.92541 c 0.277,0 0.50022,-0.23149 0.50022,-0.51882 v -0.46302 c 0,-0.28731 -0.22322,-0.51832 -0.50022,-0.51832 h -2.94712 a 2,2 0 0 0 -1.84072,-1.22267 z"
         style="fill:none;stroke:#000000;stroke-width:0.2;stroke-miterlimit:4;stroke-dasharray:none" />
      <path
         inkscape:connector-curvature="0"
         id="rect1712-1-9-4"
         d="m 287.54516,113.21429 a 1.9999799,2.0000001 0 0 0 -1.84276,1.22317 h -4.36919 -0.007 c -0.12781,0 -0.25553,0.0488 -0.35346,0.14676 l -13.43468,13.43535 c -0.0784,0.0783 -0.12438,0.17568 -0.14004,0.27699 -0.007,0.0333 -0.0108,0.068 -0.0108,0.10335 v 4.31345 a 1.9999799,2.0000001 0 0 0 -1.28777,1.86809 1.9999799,2.0000001 0 0 0 1.28777,1.86605 v 2.95228 c 0,0.27699 0.2315,0.50022 0.51882,0.50022 h 0.4625 c 0.28731,0 0.51882,-0.22323 0.51882,-0.50022 V 136.417 a 1.9999799,2.0000001 0 0 0 1.21232,-1.83555 1.9999799,2.0000001 0 0 0 -1.21232,-1.83761 v -3.25715 c 0.0224,-0.0161 0.0444,-0.0331 0.0646,-0.0532 l 13.43522,-13.43484 c 0.0191,-0.0191 0.0347,-0.0403 0.0501,-0.0615 h 3.2437 a 1.9999799,2.0000001 0 0 0 1.86446,1.27693 1.9999799,2.0000001 0 0 0 1.8624,-1.27693 h 2.92539 c 0.27698,0 0.50022,-0.23149 0.50022,-0.51882 v -0.46302 c 0,-0.28731 -0.22324,-0.51832 -0.50022,-0.51832 h -2.94711 a 1.9999799,2.0000001 0 0 0 -1.84071,-1.22267 z"
         style="fill:none;stroke:#000000;stroke-width:0.199999;stroke-miterlimit:4;stroke-dasharray:none" />
      <path
         inkscape:connector-curvature="0"
         id="rect1712-7"
         d="m 137.54622,63.214285 a 2,2 0 0 0 -1.84278,1.22317 h -4.36924 -0.007 c -0.12781,0 -0.25553,0.0488 -0.35346,0.14676 l -13.43484,13.43536 c -0.0784,0.0783 -0.12438,0.17568 -0.14004,0.27699 -0.007,0.0333 -0.0108,0.068 -0.0108,0.10335 v 4.31345 a 2,2 0 0 0 -1.28778,1.86809 2,2 0 0 0 1.28778,1.86605 v 2.95228 c 0,0.27699 0.23151,0.50022 0.51883,0.50022 h 0.4625 c 0.28732,0 0.51883,-0.22323 0.51883,-0.50022 v -2.98278 a 2,2 0 0 0 1.21233,-1.83555 2,2 0 0 0 -1.21233,-1.83761 v -3.25715 c 0.0224,-0.0161 0.0444,-0.0331 0.0646,-0.0532 l 13.43536,-13.43485 c 0.0191,-0.0191 0.0347,-0.0403 0.0501,-0.0615 h 3.24373 a 2,2 0 0 0 1.86449,1.27693 2,2 0 0 0 1.86241,-1.27693 h 2.92541 c 0.277,0 0.50023,-0.23149 0.50023,-0.51882 v -0.46302 c 0,-0.28731 -0.22323,-0.51832 -0.50023,-0.51832 h -2.94712 a 2,2 0 0 0 -1.84072,-1.22267 z"
         style="fill:none;stroke:#000000;stroke-width:0.2;stroke-miterlimit:4;stroke-dasharray:none" />
      <path
         inkscape:connector-curvature="0"
         id="rect1712-1-8"
         d="m 187.54572,63.214285 a 1.9999799,2.0000001 0 0 0 -1.84276,1.22317 h -4.36919 -0.007 c -0.12781,0 -0.25553,0.0488 -0.35346,0.14676 l -13.43471,13.43536 c -0.0784,0.0783 -0.12438,0.17568 -0.14004,0.27699 -0.007,0.0333 -0.0108,0.068 -0.0108,0.10335 v 4.31345 a 1.9999799,2.0000001 0 0 0 -1.28777,1.86809 1.9999799,2.0000001 0 0 0 1.28777,1.86605 v 2.95228 c 0,0.27699 0.2315,0.50022 0.51882,0.50022 h 0.4625 c 0.28731,0 0.51882,-0.22323 0.51882,-0.50022 v -2.98278 a 1.9999799,2.0000001 0 0 0 1.21232,-1.83555 1.9999799,2.0000001 0 0 0 -1.21232,-1.83761 v -3.25715 c 0.0224,-0.0161 0.0444,-0.0331 0.0646,-0.0532 l 13.43524,-13.43485 c 0.0191,-0.0191 0.0347,-0.0403 0.0501,-0.0615 h 3.24369 a 1.9999799,2.0000001 0 0 0 1.86447,1.27693 1.9999799,2.0000001 0 0 0 1.86239,-1.27693 h 2.92539 c 0.27699,0 0.50022,-0.23149 0.50022,-0.51882 v -0.46302 c 0,-0.28731 -0.22323,-0.51832 -0.50022,-0.51832 h -2.94709 a 1.9999799,2.0000001 0 0 0 -1.84071,-1.22267 z"
         style="fill:none;stroke:#000000;stroke-width:0.199999;stroke-miterlimit:4;stroke-dasharray:none" />
      <path
         inkscape:connector-curvature="0"
         id="rect1712-2-4"
         d="m 237.54594,63.214295 a 2,2 0 0 0 -1.84278,1.22317 h -4.36924 -0.007 c -0.12781,0 -0.25553,0.0488 -0.35346,0.14676 l -13.43484,13.43535 c -0.0784,0.0783 -0.12438,0.17568 -0.14004,0.27699 -0.007,0.0333 -0.0108,0.068 -0.0108,0.10335 v 4.31345 a 2,2 0 0 0 -1.28778,1.86809 2,2 0 0 0 1.28778,1.86605 v 2.95228 c 0,0.27699 0.23151,0.50022 0.51883,0.50022 h 0.4625 c 0.28732,0 0.51883,-0.22323 0.51883,-0.50022 v -2.98278 a 2,2 0 0 0 1.21233,-1.83555 2,2 0 0 0 -1.21233,-1.83761 v -3.25715 c 0.0224,-0.0161 0.0444,-0.0331 0.0646,-0.0532 l 13.43536,-13.43484 c 0.0191,-0.0191 0.0347,-0.0403 0.0501,-0.0615 h 3.24373 a 2,2 0 0 0 1.86449,1.27693 2,2 0 0 0 1.86241,-1.27693 h 2.92541 c 0.277,0 0.50022,-0.23149 0.50022,-0.51882 v -0.46302 c 0,-0.28731 -0.22322,-0.51832 -0.50022,-0.51832 h -2.94712 a 2,2 0 0 0 -1.84072,-1.22267 z"
         style="fill:none;stroke:#000000;stroke-width:0.2;stroke-miterlimit:4;stroke-dasharray:none" />
      <path
         inkscape:connector-curvature="0"
         id="rect1712-1-9-5"
         d="m 287.54544,63.214295 a 1.9999799,2.0000001 0 0 0 -1.84276,1.22317 h -4.36919 -0.007 c -0.12781,0 -0.25553,0.0488 -0.35346,0.14676 l -13.43469,13.43535 c -0.0784,0.0783 -0.12438,0.17568 -0.14004,0.27699 -0.007,0.0333 -0.0108,0.068 -0.0108,0.10335 v 4.31345 a 1.9999799,2.0000001 0 0 0 -1.28777,1.86809 1.9999799,2.0000001 0 0 0 1.28777,1.86605 v 2.95228 c 0,0.27699 0.2315,0.50022 0.51882,0.50022 h 0.4625 c 0.28731,0 0.51882,-0.22323 0.51882,-0.50022 v -2.98278 a 1.9999799,2.0000001 0 0 0 1.21232,-1.83555 1.9999799,2.0000001 0 0 0 -1.21232,-1.83761 v -3.25715 c 0.0224,-0.0161 0.0444,-0.0331 0.0646,-0.0532 l 13.43522,-13.43484 c 0.0191,-0.0191 0.0347,-0.0403 0.0501,-0.0615 h 3.2437 a 1.9999799,2.0000001 0 0 0 1.86446,1.27693 1.9999799,2.0000001 0 0 0 1.8624,-1.27693 h 2.92539 c 0.27698,0 0.50022,-0.23149 0.50022,-0.51882 v -0.46302 c 0,-0.28731 -0.22324,-0.51832 -0.50022,-0.51832 h -2.94711 a 1.9999799,2.0000001 0 0 0 -1.84071,-1.22267 z"
         style="fill:none;stroke:#000000;stroke-width:0.199999;stroke-miterlimit:4;stroke-dasharray:none" />
      <path
         inkscape:connector-curvature="0"
         id="rect1712-3-0"
         d="m 137.54594,13.214285 a 2,2 0 0 0 -1.84278,1.22317 h -4.36924 -0.007 c -0.12781,0 -0.25553,0.0488 -0.35346,0.14676 l -13.43484,13.43536 c -0.0784,0.0783 -0.12438,0.17568 -0.14004,0.27699 -0.007,0.0333 -0.0108,0.068 -0.0108,0.10335 v 4.31345 a 2,2 0 0 0 -1.28778,1.86809 2,2 0 0 0 1.28778,1.86605 v 2.95228 c 0,0.27699 0.23151,0.50022 0.51883,0.50022 h 0.4625 c 0.28732,0 0.51883,-0.22323 0.51883,-0.50022 v -2.98278 a 2,2 0 0 0 1.21233,-1.83555 2,2 0 0 0 -1.21233,-1.83761 v -3.25715 c 0.0224,-0.0161 0.0444,-0.0331 0.0646,-0.0532 l 13.43536,-13.43485 c 0.0191,-0.0191 0.0347,-0.0403 0.0501,-0.0615 h 3.24373 a 2,2 0 0 0 1.86449,1.27693 2,2 0 0 0 1.86241,-1.27693 h 2.92541 c 0.277,0 0.50023,-0.23149 0.50023,-0.51882 v -0.46302 c 0,-0.28731 -0.22323,-0.51832 -0.50023,-0.51832 h -2.94712 a 2,2 0 0 0 -1.84072,-1.22267 z"
         style="fill:none;stroke:#000000;stroke-width:0.2;stroke-miterlimit:4;stroke-dasharray:none" />
      <path
         inkscape:connector-curvature="0"
         id="rect1712-1-1-3"
         d="m 187.54544,13.214285 a 1.9999799,2.0000001 0 0 0 -1.84276,1.22317 h -4.36919 -0.007 c -0.12781,0 -0.25553,0.0488 -0.35346,0.14676 l -13.43468,13.43536 c -0.0784,0.0783 -0.12438,0.17568 -0.14004,0.27699 -0.007,0.0333 -0.0108,0.068 -0.0108,0.10335 v 4.31345 a 1.9999799,2.0000001 0 0 0 -1.28777,1.86809 1.9999799,2.0000001 0 0 0 1.28777,1.86605 v 2.95228 c 0,0.27699 0.2315,0.50022 0.51882,0.50022 h 0.4625 c 0.28731,0 0.51882,-0.22323 0.51882,-0.50022 v -2.98278 a 1.9999799,2.0000001 0 0 0 1.21232,-1.83555 1.9999799,2.0000001 0 0 0 -1.21232,-1.83761 v -3.25715 c 0.0224,-0.0161 0.0444,-0.0331 0.0646,-0.0532 l 13.43523,-13.43485 c 0.0191,-0.0191 0.0347,-0.0403 0.0501,-0.0615 h 3.24369 a 1.9999799,2.0000001 0 0 0 1.86447,1.27693 1.9999799,2.0000001 0 0 0 1.86239,-1.27693 h 2.92539 c 0.27699,0 0.50022,-0.23149 0.50022,-0.51882 v -0.46302 c 0,-0.28731 -0.22323,-0.51832 -0.50022,-0.51832 h -2.94712 a 1.9999799,2.0000001 0 0 0 -1.84071,-1.22267 z"
         style="fill:none;stroke:#000000;stroke-width:0.199999;stroke-miterlimit:4;stroke-dasharray:none" />
      <path
         inkscape:connector-curvature="0"
         id="rect1712-2-9-6"
         d="m 237.54566,13.214295 a 2,2 0 0 0 -1.84278,1.22317 h -4.36924 -0.007 c -0.12781,0 -0.25553,0.0488 -0.35346,0.14676 l -13.43482,13.43535 c -0.0784,0.0783 -0.12438,0.17568 -0.14004,0.27699 -0.007,0.0333 -0.0108,0.068 -0.0108,0.10335 v 4.31345 a 2,2 0 0 0 -1.28778,1.86809 2,2 0 0 0 1.28778,1.86605 v 2.95228 c 0,0.27699 0.23151,0.50022 0.51883,0.50022 h 0.4625 c 0.28732,0 0.51883,-0.22323 0.51883,-0.50022 v -2.98278 a 2,2 0 0 0 1.21233,-1.83555 2,2 0 0 0 -1.21233,-1.83761 v -3.25715 c 0.0224,-0.0161 0.0444,-0.0331 0.0646,-0.0532 l 13.43536,-13.43484 c 0.0191,-0.0191 0.0347,-0.0403 0.0501,-0.0615 h 3.24373 a 2,2 0 0 0 1.86449,1.27693 2,2 0 0 0 1.86241,-1.27693 h 2.92541 c 0.277,0 0.50022,-0.23149 0.50022,-0.51882 v -0.46302 c 0,-0.28731 -0.22322,-0.51832 -0.50022,-0.51832 h -2.94713 a 2,2 0 0 0 -1.84072,-1.22267 z"
         style="fill:none;stroke:#000000;stroke-width:0.2;stroke-miterlimit:4;stroke-dasharray:none" />
      <path
         inkscape:connector-curvature="0"
         id="rect1712-1-9-4-1"
         d="m 287.54516,13.214295 a 1.9999799,2.0000001 0 0 0 -1.84276,1.22317 h -4.36919 -0.007 c -0.12781,0 -0.25553,0.0488 -0.35346,0.14676 l -13.43467,13.43535 c -0.0784,0.0783 -0.12438,0.17568 -0.14004,0.27699 -0.007,0.0333 -0.0108,0.068 -0.0108,0.10335 v 4.31345 a 1.9999799,2.0000001 0 0 0 -1.28777,1.86809 1.9999799,2.0000001 0 0 0 1.28777,1.86605 v 2.95228 c 0,0.27699 0.2315,0.50022 0.51882,0.50022 h 0.4625 c 0.28731,0 0.51882,-0.22323 0.51882,-0.50022 v -2.98278 a 1.9999799,2.0000001 0 0 0 1.21232,-1.83555 1.9999799,2.0000001 0 0 0 -1.21232,-1.83761 v -3.25715 c 0.0224,-0.0161 0.0444,-0.0331 0.0646,-0.0532 l 13.43522,-13.43484 c 0.0191,-0.0191 0.0347,-0.0403 0.0501,-0.0615 h 3.2437 a 1.9999799,2.0000001 0 0 0 1.86446,1.27693 1.9999799,2.0000001 0 0 0 1.8624,-1.27693 h 2.92539 c 0.27698,0 0.50022,-0.23149 0.50022,-0.51882 v -0.46302 c 0,-0.28731 -0.22324,-0.51832 -0.50022,-0.51832 h -2.94711 a 1.9999799,2.0000001 0 0 0 -1.84071,-1.22267 z"
         style="fill:none;stroke:#000000;stroke-width:0.199999;stroke-miterlimit:4;stroke-dasharray:none" />
      <path
         inkscape:connector-curvature="0"
         id="rect1712-0"
         d="m 137.54625,-36.785715 a 2.0000031,2 0 0 0 -1.84278,1.22317 h -4.36925 -0.007 c -0.12781,0 -0.25553,0.0488 -0.35346,0.14676 l -13.43486,13.43536 c -0.0784,0.0783 -0.12438,0.17568 -0.14004,0.27699 -0.007,0.0333 -0.0108,0.068 -0.0108,0.10335 v 4.31345 a 2.0000031,2 0 0 0 -1.28778,1.86809 2.0000031,2 0 0 0 1.28778,1.86605 v 2.95228 c 0,0.276989 0.23151,0.500219 0.51883,0.500219 h 0.4625 c 0.28732,0 0.51883,-0.22323 0.51883,-0.500219 v -2.98278 a 2.0000031,2 0 0 0 1.21234,-1.83555 2.0000031,2 0 0 0 -1.21234,-1.83761 v -3.25715 c 0.0224,-0.0161 0.0444,-0.0331 0.0646,-0.0532 l 13.43538,-13.43485 c 0.0191,-0.0191 0.0347,-0.0403 0.0501,-0.0615 h 3.24373 a 2.0000031,2 0 0 0 1.86449,1.27693 2.0000031,2 0 0 0 1.86242,-1.27693 h 2.92541 c 0.277,0 0.50023,-0.23149 0.50023,-0.51882 v -0.46302 c 0,-0.28731 -0.22323,-0.51832 -0.50023,-0.51832 h -2.94712 a 2.0000031,2 0 0 0 -1.84073,-1.22267 z"
         style="fill:none;stroke:#000000;stroke-width:0.2;stroke-miterlimit:4;stroke-dasharray:none" />
      <path
         inkscape:connector-curvature="0"
         id="rect1712-1-6"
         d="m 187.54583,-36.785715 a 1.999983,2.0000001 0 0 0 -1.84276,1.22317 h -4.3692 -0.007 c -0.12781,0 -0.25552,0.0488 -0.35345,0.14676 l -13.43474,13.43536 c -0.0784,0.0783 -0.12438,0.17568 -0.14004,0.27699 -0.007,0.0333 -0.0108,0.068 -0.0108,0.10335 v 4.31345 a 1.999983,2.0000001 0 0 0 -1.28777,1.86809 1.999983,2.0000001 0 0 0 1.28777,1.86605 v 2.95228 c 0,0.276989 0.2315,0.500219 0.51882,0.500219 h 0.4625 c 0.28731,0 0.51882,-0.22323 0.51882,-0.500219 v -2.98278 a 1.999983,2.0000001 0 0 0 1.21232,-1.83555 1.999983,2.0000001 0 0 0 -1.21232,-1.83761 v -3.25715 c 0.0224,-0.0161 0.0444,-0.0331 0.0646,-0.0532 l 13.43525,-13.43485 c 0.0191,-0.0191 0.0347,-0.0403 0.0501,-0.0615 h 3.2437 a 1.999983,2.0000001 0 0 0 1.86447,1.27693 1.999983,2.0000001 0 0 0 1.86239,-1.27693 h 2.9254 c 0.27699,0 0.50022,-0.23149 0.50022,-0.51882 v -0.46302 c 0,-0.28731 -0.22323,-0.51832 -0.50022,-0.51832 h -2.9471 a 1.999983,2.0000001 0 0 0 -1.84071,-1.22267 z"
         style="fill:none;stroke:#000000;stroke-width:0.199999;stroke-miterlimit:4;stroke-dasharray:none" />
      <path
         inkscape:connector-curvature="0"
         id="rect1712-2-3"
         d="m 237.54613,-36.785705 a 2.0000031,2 0 0 0 -1.84279,1.22317 h -4.36924 -0.007 c -0.12781,0 -0.25553,0.0488 -0.35346,0.14676 l -13.43486,13.43535 c -0.0784,0.0783 -0.12438,0.17568 -0.14004,0.27699 -0.007,0.0333 -0.0108,0.068 -0.0108,0.10335 v 4.31345 a 2.0000031,2 0 0 0 -1.28778,1.86809 2.0000031,2 0 0 0 1.28778,1.86605 v 2.95228 c 0,0.276989 0.23152,0.500219 0.51884,0.500219 h 0.4625 c 0.28732,0 0.51883,-0.22323 0.51883,-0.500219 v -2.98278 a 2.0000031,2 0 0 0 1.21233,-1.83555 2.0000031,2 0 0 0 -1.21233,-1.83761 v -3.25715 c 0.0224,-0.0161 0.0444,-0.0331 0.0646,-0.0532 l 13.43538,-13.43484 c 0.0191,-0.0191 0.0347,-0.0403 0.0501,-0.0615 h 3.24373 a 2.0000031,2 0 0 0 1.8645,1.27693 2.0000031,2 0 0 0 1.86241,-1.27693 h 2.92541 c 0.277,0 0.50022,-0.23149 0.50022,-0.51882 v -0.46302 c 0,-0.28731 -0.22322,-0.51832 -0.50022,-0.51832 h -2.94712 a 2.0000031,2 0 0 0 -1.84072,-1.22267 z"
         style="fill:none;stroke:#000000;stroke-width:0.2;stroke-miterlimit:4;stroke-dasharray:none" />
      <path
         inkscape:connector-curvature="0"
         id="rect1712-1-9-2"
         d="m 287.5457,-36.785705 a 1.999983,2.0000001 0 0 0 -1.84276,1.22317 h -4.3692 -0.007 c -0.12781,0 -0.25553,0.0488 -0.35346,0.14676 l -13.43471,13.43535 c -0.0784,0.0783 -0.12438,0.17568 -0.14004,0.27699 -0.007,0.0333 -0.0108,0.068 -0.0108,0.10335 v 4.31345 a 1.999983,2.0000001 0 0 0 -1.28777,1.86809 1.999983,2.0000001 0 0 0 1.28777,1.86605 v 2.95228 c 0,0.276989 0.2315,0.500219 0.51882,0.500219 h 0.4625 c 0.28731,0 0.51882,-0.22323 0.51882,-0.500219 v -2.98278 a 1.999983,2.0000001 0 0 0 1.21233,-1.83555 1.999983,2.0000001 0 0 0 -1.21233,-1.83761 v -3.25715 c 0.0224,-0.0161 0.0444,-0.0331 0.0646,-0.0532 l 13.43524,-13.43484 c 0.0191,-0.0191 0.0347,-0.0403 0.0501,-0.0615 h 3.24371 a 1.999983,2.0000001 0 0 0 1.86446,1.27693 1.999983,2.0000001 0 0 0 1.86241,-1.27693 h 2.92539 c 0.27698,0 0.50022,-0.23149 0.50022,-0.51882 v -0.46302 c 0,-0.28731 -0.22324,-0.51832 -0.50022,-0.51832 h -2.94711 a 1.999983,2.0000001 0 0 0 -1.84072,-1.22267 z"
         style="fill:none;stroke:#000000;stroke-width:0.199999;stroke-miterlimit:4;stroke-dasharray:none" />
      <path
         inkscape:connector-curvature="0"
         id="rect1712-3-06"
         d="m 137.54597,-86.785715 a 2.0000031,2 0 0 0 -1.84278,1.22317 h -4.36925 -0.007 c -0.12781,0 -0.25553,0.0488 -0.35346,0.14676 l -13.43486,13.43536 c -0.0784,0.0783 -0.12438,0.17568 -0.14004,0.27699 -0.007,0.0333 -0.0108,0.068 -0.0108,0.10335 v 4.31345 a 2.0000031,2 0 0 0 -1.28778,1.86809 2.0000031,2 0 0 0 1.28778,1.86605 v 2.95228 c 0,0.27699 0.23151,0.50022 0.51883,0.50022 h 0.4625 c 0.28732,0 0.51883,-0.22323 0.51883,-0.50022 v -2.98278 a 2.0000031,2 0 0 0 1.21234,-1.83555 2.0000031,2 0 0 0 -1.21234,-1.83761 v -3.25715 c 0.0224,-0.0161 0.0444,-0.0331 0.0646,-0.0532 l 13.43538,-13.43485 c 0.0191,-0.0191 0.0347,-0.0403 0.0501,-0.0615 h 3.24373 a 2.0000031,2 0 0 0 1.86449,1.27693 2.0000031,2 0 0 0 1.86242,-1.27693 h 2.92541 c 0.277,0 0.50023,-0.23149 0.50023,-0.51882 v -0.46302 c 0,-0.28731 -0.22323,-0.51832 -0.50023,-0.51832 h -2.94712 a 2.0000031,2 0 0 0 -1.84073,-1.22267 z"
         style="fill:none;stroke:#000000;stroke-width:0.2;stroke-miterlimit:4;stroke-dasharray:none" />
      <path
         inkscape:connector-curvature="0"
         id="rect1712-1-1-1"
         d="m 187.54555,-86.785715 a 1.999983,2.0000001 0 0 0 -1.84276,1.22317 h -4.3692 -0.007 c -0.12781,0 -0.25553,0.0488 -0.35346,0.14676 l -13.43471,13.43536 c -0.0784,0.0783 -0.12438,0.17568 -0.14004,0.27699 -0.007,0.0333 -0.0108,0.068 -0.0108,0.10335 v 4.31345 a 1.999983,2.0000001 0 0 0 -1.28777,1.86809 1.999983,2.0000001 0 0 0 1.28777,1.86605 v 2.95228 c 0,0.27699 0.23151,0.50022 0.51882,0.50022 h 0.4625 c 0.28731,0 0.51883,-0.22323 0.51883,-0.50022 v -2.98278 a 1.999983,2.0000001 0 0 0 1.21231,-1.83555 1.999983,2.0000001 0 0 0 -1.21231,-1.83761 v -3.25715 c 0.0224,-0.0161 0.0444,-0.0331 0.0646,-0.0532 l 13.43525,-13.43485 c 0.0191,-0.0191 0.0347,-0.0403 0.0501,-0.0615 h 3.2437 a 1.999983,2.0000001 0 0 0 1.86447,1.27693 1.999983,2.0000001 0 0 0 1.86239,-1.27693 h 2.9254 c 0.27699,0 0.50022,-0.23149 0.50022,-0.51882 v -0.46302 c 0,-0.28731 -0.22323,-0.51832 -0.50022,-0.51832 h -2.94712 a 1.999983,2.0000001 0 0 0 -1.84071,-1.22267 z"
         style="fill:none;stroke:#000000;stroke-width:0.199999;stroke-miterlimit:4;stroke-dasharray:none" />
      <path
         inkscape:connector-curvature="0"
         id="rect1712-2-9-5"
         d="m 237.54585,-86.785705 a 2.0000031,2 0 0 0 -1.84279,1.22317 h -4.36924 -0.007 c -0.12781,0 -0.25553,0.0488 -0.35346,0.14676 l -13.43484,13.43535 c -0.0784,0.0783 -0.12438,0.17568 -0.14004,0.27699 -0.007,0.0333 -0.0108,0.068 -0.0108,0.10335 v 4.31345 a 2.0000031,2 0 0 0 -1.28778,1.86809 2.0000031,2 0 0 0 1.28778,1.86605 v 2.95228 c 0,0.27699 0.23152,0.50022 0.51884,0.50022 h 0.4625 c 0.28732,0 0.51883,-0.22323 0.51883,-0.50022 v -2.98278 a 2.0000031,2 0 0 0 1.21233,-1.83555 2.0000031,2 0 0 0 -1.21233,-1.83761 v -3.25715 c 0.0224,-0.0161 0.0444,-0.0331 0.0646,-0.0532 l 13.43538,-13.43484 c 0.0191,-0.0191 0.0347,-0.0403 0.0501,-0.0615 h 3.24373 a 2.0000031,2 0 0 0 1.8645,1.27693 2.0000031,2 0 0 0 1.86241,-1.27693 h 2.92541 c 0.277,0 0.50022,-0.23149 0.50022,-0.51882 v -0.46302 c 0,-0.28731 -0.22322,-0.51832 -0.50022,-0.51832 h -2.94712 a 2.0000031,2 0 0 0 -1.84072,-1.22267 z"
         style="fill:none;stroke:#000000;stroke-width:0.2;stroke-miterlimit:4;stroke-dasharray:none" />
      <path
         inkscape:connector-curvature="0"
         id="rect1712-1-9-4-5"
         d="m 287.54542,-86.785705 a 1.999983,2.0000001 0 0 0 -1.84276,1.22317 h -4.3692 -0.007 c -0.12781,0 -0.25553,0.0488 -0.35346,0.14676 l -13.4347,13.43535 c -0.0784,0.0783 -0.12438,0.17568 -0.14004,0.27699 -0.007,0.0333 -0.0108,0.068 -0.0108,0.10335 v 4.31345 a 1.999983,2.0000001 0 0 0 -1.28777,1.86809 1.999983,2.0000001 0 0 0 1.28777,1.86605 v 2.95228 c 0,0.27699 0.2315,0.50022 0.51882,0.50022 h 0.4625 c 0.28731,0 0.51882,-0.22323 0.51882,-0.50022 v -2.98278 a 1.999983,2.0000001 0 0 0 1.21233,-1.83555 1.999983,2.0000001 0 0 0 -1.21233,-1.83761 v -3.25715 c 0.0224,-0.0161 0.0444,-0.0331 0.0646,-0.0532 l 13.43524,-13.43484 c 0.0191,-0.0191 0.0347,-0.0403 0.0501,-0.0615 h 3.24371 a 1.999983,2.0000001 0 0 0 1.86446,1.27693 1.999983,2.0000001 0 0 0 1.86241,-1.27693 h 2.92539 c 0.27698,0 0.50022,-0.23149 0.50022,-0.51882 v -0.46302 c 0,-0.28731 -0.22324,-0.51832 -0.50022,-0.51832 h -2.94711 a 1.999983,2.0000001 0 0 0 -1.84072,-1.22267 z"
         style="fill:none;stroke:#000000;stroke-width:0.199999;stroke-miterlimit:4;stroke-dasharray:none" />
      <path
         inkscape:connector-curvature="0"
         id="rect1712-7-4"
         d="m 137.54625,-136.78572 a 2.0000031,2 0 0 0 -1.84278,1.22317 h -4.36925 -0.007 c -0.12781,0 -0.25553,0.0488 -0.35346,0.14676 l -13.43486,13.43536 c -0.0784,0.0783 -0.12438,0.17568 -0.14004,0.27699 -0.007,0.0333 -0.0108,0.068 -0.0108,0.10335 v 4.31345 a 2.0000031,2 0 0 0 -1.28778,1.86809 2.0000031,2 0 0 0 1.28778,1.86605 v 2.95228 c 0,0.27699 0.23151,0.50022 0.51883,0.50022 h 0.4625 c 0.28732,0 0.51883,-0.22323 0.51883,-0.50022 v -2.98278 a 2.0000031,2 0 0 0 1.21234,-1.83555 2.0000031,2 0 0 0 -1.21234,-1.83761 v -3.25715 c 0.0224,-0.0161 0.0444,-0.0331 0.0646,-0.0532 l 13.43538,-13.43485 c 0.0191,-0.0191 0.0347,-0.0403 0.0501,-0.0615 h 3.24373 a 2.0000031,2 0 0 0 1.86449,1.27693 2.0000031,2 0 0 0 1.86242,-1.27693 h 2.92541 c 0.277,0 0.50023,-0.23149 0.50023,-0.51882 v -0.46302 c 0,-0.28731 -0.22323,-0.51832 -0.50023,-0.51832 h -2.94712 a 2.0000031,2 0 0 0 -1.84073,-1.22267 z"
         style="fill:none;stroke:#000000;stroke-width:0.2;stroke-miterlimit:4;stroke-dasharray:none" />
      <path
         inkscape:connector-curvature="0"
         id="rect1712-1-8-7"
         d="m 187.54583,-136.78572 a 1.999983,2.0000001 0 0 0 -1.84276,1.22317 h -4.3692 -0.007 c -0.12781,0 -0.25552,0.0488 -0.35345,0.14676 l -13.43474,13.43536 c -0.0784,0.0783 -0.12438,0.17568 -0.14003,0.27699 -0.007,0.0333 -0.0108,0.068 -0.0108,0.10335 v 4.31345 a 1.999983,2.0000001 0 0 0 -1.28777,1.86809 1.999983,2.0000001 0 0 0 1.28777,1.86605 v 2.95228 c 0,0.27699 0.2315,0.50022 0.51881,0.50022 h 0.4625 c 0.28731,0 0.51883,-0.22323 0.51883,-0.50022 v -2.98278 a 1.999983,2.0000001 0 0 0 1.21231,-1.83555 1.999983,2.0000001 0 0 0 -1.21231,-1.83761 v -3.25715 c 0.0224,-0.0161 0.0444,-0.0331 0.0646,-0.0532 l 13.43526,-13.43485 c 0.0191,-0.0191 0.0347,-0.0403 0.0501,-0.0615 h 3.2437 a 1.999983,2.0000001 0 0 0 1.86447,1.27693 1.999983,2.0000001 0 0 0 1.86239,-1.27693 h 2.9254 c 0.27699,0 0.50022,-0.23149 0.50022,-0.51882 v -0.46302 c 0,-0.28731 -0.22323,-0.51832 -0.50022,-0.51832 h -2.9471 a 1.999983,2.0000001 0 0 0 -1.84071,-1.22267 z"
         style="fill:none;stroke:#000000;stroke-width:0.199999;stroke-miterlimit:4;stroke-dasharray:none" />
      <path
         inkscape:connector-curvature="0"
         id="rect1712-2-4-6"
         d="m 237.54613,-136.78571 a 2.0000031,2 0 0 0 -1.84279,1.22317 h -4.36924 -0.007 c -0.12781,0 -0.25553,0.0488 -0.35346,0.14676 l -13.43486,13.43535 c -0.0784,0.0783 -0.12438,0.17568 -0.14004,0.27699 -0.007,0.0333 -0.0108,0.068 -0.0108,0.10335 v 4.31345 a 2.0000031,2 0 0 0 -1.28778,1.86809 2.0000031,2 0 0 0 1.28778,1.86605 v 2.95228 c 0,0.27699 0.23152,0.50022 0.51884,0.50022 h 0.4625 c 0.28732,0 0.51883,-0.22323 0.51883,-0.50022 v -2.98278 a 2.0000031,2 0 0 0 1.21233,-1.83555 2.0000031,2 0 0 0 -1.21233,-1.83761 v -3.25715 c 0.0224,-0.0161 0.0444,-0.0331 0.0646,-0.0532 l 13.43538,-13.43484 c 0.0191,-0.0191 0.0347,-0.0403 0.0501,-0.0615 h 3.24373 a 2.0000031,2 0 0 0 1.8645,1.27693 2.0000031,2 0 0 0 1.86241,-1.27693 h 2.92541 c 0.277,0 0.50022,-0.23149 0.50022,-0.51882 v -0.46302 c 0,-0.28731 -0.22322,-0.51832 -0.50022,-0.51832 h -2.94712 a 2.0000031,2 0 0 0 -1.84072,-1.22267 z"
         style="fill:none;stroke:#000000;stroke-width:0.2;stroke-miterlimit:4;stroke-dasharray:none" />
      <path
         inkscape:connector-curvature="0"
         id="rect1712-1-9-5-5"
         d="m 287.5457,-136.78571 a 1.999983,2.0000001 0 0 0 -1.84276,1.22317 h -4.3692 -0.007 c -0.12781,0 -0.25553,0.0488 -0.35346,0.14676 l -13.43471,13.43535 c -0.0784,0.0783 -0.12438,0.17568 -0.14004,0.27699 -0.007,0.0333 -0.0108,0.068 -0.0108,0.10335 v 4.31345 a 1.999983,2.0000001 0 0 0 -1.28777,1.86809 1.999983,2.0000001 0 0 0 1.28777,1.86605 v 2.95228 c 0,0.27699 0.2315,0.50022 0.51882,0.50022 h 0.4625 c 0.28731,0 0.51882,-0.22323 0.51882,-0.50022 v -2.98278 a 1.999983,2.0000001 0 0 0 1.21233,-1.83555 1.999983,2.0000001 0 0 0 -1.21233,-1.83761 v -3.25715 c 0.0224,-0.0161 0.0444,-0.0331 0.0646,-0.0532 l 13.43524,-13.43484 c 0.0191,-0.0191 0.0347,-0.0403 0.0501,-0.0615 h 3.24371 a 1.999983,2.0000001 0 0 0 1.86446,1.27693 1.999983,2.0000001 0 0 0 1.86241,-1.27693 h 2.92539 c 0.27698,0 0.50022,-0.23149 0.50022,-0.51882 v -0.46302 c 0,-0.28731 -0.22324,-0.51832 -0.50022,-0.51832 h -2.94711 a 1.999983,2.0000001 0 0 0 -1.84072,-1.22267 z"
         style="fill:none;stroke:#000000;stroke-width:0.199999;stroke-miterlimit:4;stroke-dasharray:none" />
      <path
         inkscape:connector-curvature="0"
         id="rect1712-3-0-6"
         d="m 137.54597,-186.78572 a 2.0000031,2 0 0 0 -1.84278,1.22317 h -4.36925 -0.007 c -0.12781,0 -0.25553,0.0488 -0.35346,0.14676 l -13.43486,13.43536 c -0.0784,0.0783 -0.12438,0.17568 -0.14004,0.27699 -0.007,0.0333 -0.0108,0.068 -0.0108,0.10335 v 4.31345 a 2.0000031,2 0 0 0 -1.28778,1.86809 2.0000031,2 0 0 0 1.28778,1.86605 v 2.95228 c 0,0.27699 0.23151,0.50022 0.51883,0.50022 h 0.4625 c 0.28732,0 0.51883,-0.22323 0.51883,-0.50022 v -2.98278 a 2.0000031,2 0 0 0 1.21234,-1.83555 2.0000031,2 0 0 0 -1.21234,-1.83761 v -3.25715 c 0.0224,-0.0161 0.0444,-0.0331 0.0646,-0.0532 l 13.43538,-13.43485 c 0.0191,-0.0191 0.0347,-0.0403 0.0501,-0.0615 h 3.24373 a 2.0000031,2 0 0 0 1.86449,1.27693 2.0000031,2 0 0 0 1.86242,-1.27693 h 2.92541 c 0.277,0 0.50023,-0.23149 0.50023,-0.51882 v -0.46302 c 0,-0.28731 -0.22323,-0.51832 -0.50023,-0.51832 h -2.94712 a 2.0000031,2 0 0 0 -1.84073,-1.22267 z"
         style="fill:none;stroke:#000000;stroke-width:0.2;stroke-miterlimit:4;stroke-dasharray:none" />
      <path
         inkscape:connector-curvature="0"
         id="rect1712-1-1-3-9"
         d="m 187.54555,-186.78572 a 1.999983,2.0000001 0 0 0 -1.84276,1.22317 h -4.3692 -0.007 c -0.12781,0 -0.25553,0.0488 -0.35346,0.14676 l -13.43468,13.43536 c -0.0784,0.0783 -0.12439,0.17568 -0.14005,0.27699 -0.007,0.0333 -0.0108,0.068 -0.0108,0.10335 v 4.31345 a 1.999983,2.0000001 0 0 0 -1.28777,1.86809 1.999983,2.0000001 0 0 0 1.28777,1.86605 v 2.95228 c 0,0.27699 0.2315,0.50022 0.51883,0.50022 h 0.46249 c 0.28731,0 0.51882,-0.22323 0.51882,-0.50022 v -2.98278 a 1.999983,2.0000001 0 0 0 1.21232,-1.83555 1.999983,2.0000001 0 0 0 -1.21232,-1.83761 v -3.25715 c 0.0224,-0.0161 0.0444,-0.0331 0.0646,-0.0532 l 13.43525,-13.43485 c 0.0191,-0.0191 0.0347,-0.0403 0.0501,-0.0615 h 3.2437 a 1.999983,2.0000001 0 0 0 1.86447,1.27693 1.999983,2.0000001 0 0 0 1.86239,-1.27693 h 2.9254 c 0.27699,0 0.50022,-0.23149 0.50022,-0.51882 v -0.46302 c 0,-0.28731 -0.22323,-0.51832 -0.50022,-0.51832 h -2.94714 a 1.999983,2.0000001 0 0 0 -1.84071,-1.22267 z"
         style="fill:none;stroke:#000000;stroke-width:0.199999;stroke-miterlimit:4;stroke-dasharray:none" />
      <path
         inkscape:connector-curvature="0"
         id="rect1712-2-9-6-3"
         d="m 237.54585,-186.78571 a 2.0000031,2 0 0 0 -1.84279,1.22317 h -4.36924 -0.007 c -0.12781,0 -0.25553,0.0488 -0.35346,0.14676 l -13.43483,13.43535 c -0.0784,0.0783 -0.12438,0.17568 -0.14004,0.27699 -0.007,0.0333 -0.0108,0.068 -0.0108,0.10335 v 4.31345 a 2.0000031,2 0 0 0 -1.28778,1.86809 2.0000031,2 0 0 0 1.28778,1.86605 v 2.95228 c 0,0.27699 0.23152,0.50022 0.51884,0.50022 h 0.4625 c 0.28732,0 0.51883,-0.22323 0.51883,-0.50022 v -2.98278 a 2.0000031,2 0 0 0 1.21233,-1.83555 2.0000031,2 0 0 0 -1.21233,-1.83761 v -3.25715 c 0.0224,-0.0161 0.0444,-0.0331 0.0646,-0.0532 l 13.43537,-13.43484 c 0.0191,-0.0191 0.0347,-0.0403 0.0501,-0.0615 h 3.24373 a 2.0000031,2 0 0 0 1.8645,1.27693 2.0000031,2 0 0 0 1.86241,-1.27693 h 2.92541 c 0.277,0 0.50022,-0.23149 0.50022,-0.51882 v -0.46302 c 0,-0.28731 -0.22322,-0.51832 -0.50022,-0.51832 h -2.94713 a 2.0000031,2 0 0 0 -1.84072,-1.22267 z"
         style="fill:none;stroke:#000000;stroke-width:0.2;stroke-miterlimit:4;stroke-dasharray:none" />
      <path
         inkscape:connector-curvature="0"
         id="rect1712-1-9-4-1-7"
         d="m 287.54542,-186.78571 a 1.999983,2.0000001 0 0 0 -1.84276,1.22317 h -4.3692 -0.007 c -0.12781,0 -0.25553,0.0488 -0.35346,0.14676 l -13.43469,13.43535 c -0.0784,0.0783 -0.12438,0.17568 -0.14004,0.27699 -0.007,0.0333 -0.0108,0.068 -0.0108,0.10335 v 4.31345 a 1.999983,2.0000001 0 0 0 -1.28777,1.86809 1.999983,2.0000001 0 0 0 1.28777,1.86605 v 2.95228 c 0,0.27699 0.2315,0.50022 0.51882,0.50022 h 0.4625 c 0.28731,0 0.51882,-0.22323 0.51882,-0.50022 v -2.98278 a 1.999983,2.0000001 0 0 0 1.21233,-1.83555 1.999983,2.0000001 0 0 0 -1.21233,-1.83761 v -3.25715 c 0.0224,-0.0161 0.0444,-0.0331 0.0646,-0.0532 l 13.43524,-13.43484 c 0.0191,-0.0191 0.0347,-0.0403 0.0501,-0.0615 h 3.24371 a 1.999983,2.0000001 0 0 0 1.86446,1.27693 1.999983,2.0000001 0 0 0 1.86241,-1.27693 h 2.92539 c 0.27698,0 0.50022,-0.23149 0.50022,-0.51882 v -0.46302 c 0,-0.28731 -0.22324,-0.51832 -0.50022,-0.51832 h -2.94711 a 1.999983,2.0000001 0 0 0 -1.84072,-1.22267 z"
         style="fill:none;stroke:#000000;stroke-width:0.199999;stroke-miterlimit:4;stroke-dasharray:none" />
    </g>
    <g
       id="g1986"
       transform="matrix(1.1,0,0,1,-30.614268,-0.07999725)"
       inkscape:label="horizontals">
      <rect
         y="-165.92"
         x="50.558426"
         height="1"
         width="250"
         id="rect1982"
         style="fill:#000000;stroke:none;stroke-width:0.2;stroke-miterlimit:4;stroke-dasharray:none" />
      <rect
         y="-115.92"
         x="50.558426"
         height="1"
         width="250"
         id="rect1982-7"
         style="fill:#000000;stroke:none;stroke-width:0.2;stroke-miterlimit:4;stroke-dasharray:none" />
      <rect
         y="-65.920013"
         x="50.558426"
         height="1"
         width="250"
         id="rect1982-4"
         style="fill:#000000;stroke:none;stroke-width:0.2;stroke-miterlimit:4;stroke-dasharray:none" />
      <rect
         y="-15.919998"
         x="50.558426"
         height="1"
         width="250"
         id="rect1982-7-4"
         style="fill:#000000;stroke:none;stroke-width:0.2;stroke-miterlimit:4;stroke-dasharray:none" />
      <rect
         y="34.079979"
         x="50.558426"
         height="1"
         width="250"
         id="rect1982-3"
         style="fill:#000000;stroke:none;stroke-width:0.2;stroke-miterlimit:4;stroke-dasharray:none" />
      <rect
         y="84.079994"
         x="50.558426"
         height="1"
         width="250"
         id="rect1982-7-0"
         style="fill:#000000;stroke:none;stroke-width:0.2;stroke-miterlimit:4;stroke-dasharray:none" />
      <rect
         y="134.07999"
         x="50.558426"
         height="1"
         width="250"
         id="rect1982-4-7"
         style="fill:#000000;stroke:none;stroke-width:0.2;stroke-miterlimit:4;stroke-dasharray:none" />
      <rect
         y="184.08"
         x="50.558426"
         height="1"
         width="250"
         id="rect1982-7-4-8"
         style="fill:#000000;stroke:none;stroke-width:0.2;stroke-miterlimit:4;stroke-dasharray:none" />
    </g>
    <g
       id="g1929"
       inkscape:label="verticals">
      <rect
         y="-278"
         x="137"
         height="550"
         width="1"
         id="rect1926"
         style="fill:#000000;stroke:none;stroke-width:0.2;stroke-miterlimit:4;stroke-dasharray:none" />
      <rect
         y="-278"
         x="187"
         height="550"
         width="1"
         id="rect1926-2"
         style="fill:#000000;stroke:none;stroke-width:0.2;stroke-miterlimit:4;stroke-dasharray:none" />
      <rect
         y="-278"
         x="237"
         height="550"
         width="1"
         id="rect1926-5"
         style="fill:#000000;stroke:none;stroke-width:0.2;stroke-miterlimit:4;stroke-dasharray:none" />
      <rect
         y="-278"
         x="287"
         height="550"
         width="1"
         id="rect1926-2-4"
         style="fill:#000000;stroke:none;stroke-width:0.2;stroke-miterlimit:4;stroke-dasharray:none" />
    </g>
    <rect
       style="fill:none;stroke:#000000;stroke-width:0.2;stroke-miterlimit:4;stroke-dasharray:none"
       id="rect895"
       width="300"
       height="600"
       x="1.4901183e-09"
       y="-303"
       inkscape:label="page" />
  </g>
</svg>
